<svg width="202" height="41" viewBox="0 0 202 41" fill="none" xmlns="http://www.w3.org/2000/svg">
<g clip-path="url(#clip0_24_627)">
<path d="M7.49145 9.79468H1.72363V30.201H7.49145V9.79468Z" fill="#0037D7"/>
<path d="M29.5678 30.2034H23.7585V18.3506C23.7585 15.9882 22.4306 14.6441 20.1484 14.6441C17.9907 14.6441 16.7873 16.5585 16.5383 16.9658V30.2034H10.7705V9.79707H16.2479V11.9151C17.1193 10.8561 18.945 9.34902 21.9327 9.34902C23.9659 9.30829 25.9162 10.0415 27.327 11.3856C28.8209 12.8112 29.6093 14.7663 29.6093 17.088V30.2034H29.5678Z" fill="#0037D7"/>
<path d="M4.62763 7.38956C2.59437 7.38956 0.93457 5.76031 0.93457 3.76448C0.93457 1.72792 2.55288 0.139404 4.62763 0.139404C6.66089 0.139404 8.3207 1.76865 8.3207 3.76448C8.3207 5.76031 6.66089 7.38956 4.62763 7.38956Z" fill="#0037D7"/>
<path d="M41.5151 30.5668C35.5398 30.5668 32.3447 27.0232 32.2202 26.8603L32.0127 26.6566L35.2078 22.6242L35.4983 22.9093C35.5398 22.9501 38.1125 25.5976 41.2661 25.5976C42.8429 25.5976 44.7102 25.231 44.7102 24.172C44.7102 23.1945 44.0878 22.9908 41.0171 22.3391C35.8302 21.1986 33.299 19.0806 33.299 15.7814C33.299 12.6451 36.4527 9.2644 42.3035 9.2644C46.9094 9.2644 49.9386 11.6675 50.0631 11.749L50.312 11.9527L47.3659 16.1887L47.0754 15.985C47.0339 15.985 44.8347 14.3558 42.3035 14.3558C40.4777 14.3558 39.0254 15.0075 39.0254 15.8629C39.0254 16.7182 40.1042 17.0033 43.5068 17.6958C47.1169 18.4696 50.6025 19.6101 50.6025 24.172C50.6025 27.7971 46.6605 30.5668 41.5151 30.5668Z" fill="#0037D7"/>
<path d="M63.7139 30.7308C59.5644 30.7308 56.5353 27.6353 56.5353 23.3585V14.9271H52.5518V9.79502H56.5353V3.97046H62.3446V9.79502H68.3614V15.0086H62.3446V22.5846C62.3446 24.4175 63.0915 25.3543 64.5853 25.3543C65.5812 25.3543 66.4941 24.7434 66.5356 24.7026L66.9091 24.4582L69.0253 29.1423L68.7763 29.3052C68.6933 29.3867 66.7431 30.7308 63.7139 30.7308Z" fill="#0037D7"/>
<path d="M78.2445 30.6466C76.2527 30.6466 74.3854 29.9949 73.0161 28.8137C71.4808 27.5103 70.6924 25.7589 70.6924 23.6816C70.6924 19.8121 74.3025 16.798 78.9084 16.798C81.5226 16.798 83.2654 17.4904 84.0953 17.9385V17.4904C84.0953 16.4314 83.2654 14.4356 80.1533 14.4356C77.3316 14.4356 74.3025 15.8612 74.3025 15.8612L73.9705 16.0241L72.0617 11.2586L72.3522 11.1364C72.5182 11.0549 76.2112 9.30347 80.4437 9.30347C86.2945 9.30347 89.9046 12.2768 89.9046 17.0424V30.2393H84.5102V28.3249C83.5144 29.1803 81.4811 30.6466 78.2445 30.6466ZM79.8213 21.1562C78.5765 21.1562 76.4602 21.6857 76.4602 23.6001C76.4602 25.5145 78.535 25.7996 79.7383 25.7996C82.2695 25.7996 83.7633 24.0889 84.0538 23.6816V21.9709C83.5559 21.8079 81.979 21.1562 79.8213 21.1562Z" fill="#0037D7"/>
<path d="M111.808 30.2034H106.04V18.3506C106.04 15.9882 104.712 14.6441 102.43 14.6441C100.272 14.6441 99.0685 16.5585 98.8196 16.9658V30.2034H93.0518V9.79707H98.5291V11.9151C99.4005 10.8561 101.226 9.34902 104.214 9.34902C106.289 9.30829 108.197 10.0415 109.608 11.3856C111.102 12.8112 111.849 14.7663 111.849 17.088V30.2034H111.808Z" fill="#0037D7"/>
<path d="M125.249 30.7318C121.1 30.7318 118.07 27.6362 118.07 23.3595V14.9281H114.087V9.79599H118.07V3.97144H123.838V9.79599H129.855V15.0096H123.838V22.5856C123.838 24.4185 124.585 25.3553 126.079 25.3553C127.075 25.3553 127.988 24.7036 128.029 24.7036L128.403 24.4592L130.519 29.1433L130.27 29.3062C130.229 29.3877 128.278 30.7318 125.249 30.7318Z" fill="#0037D7"/>
<path d="M138.866 39.7736H133.099V9.79546H138.493V11.7098C139.406 10.773 141.232 9.34741 144.178 9.34741C149.863 9.34741 154.303 14.0315 154.303 20.0597C154.303 23.0331 153.224 25.7621 151.273 27.7579C149.365 29.713 146.875 30.772 144.219 30.772C141.522 30.772 139.821 29.5908 138.949 28.7762V39.7736H138.866ZM138.866 22.8294C139.115 23.2367 140.443 25.2733 143.265 25.2733C146.336 25.2733 148.369 23.1145 148.369 19.9375C148.369 16.7605 146.294 14.6017 143.265 14.6017C140.443 14.6017 139.115 16.6383 138.866 17.0456V22.8294Z" fill="#0037D7"/>
<path d="M163.963 30.6466C161.971 30.6466 160.104 29.9949 158.735 28.8137C157.2 27.5103 156.411 25.7589 156.411 23.6816C156.411 19.8121 160.021 16.798 164.627 16.798C167.241 16.798 168.984 17.4904 169.814 17.9385V17.4904C169.814 16.4314 168.984 14.4356 165.872 14.4356C163.05 14.4356 160.021 15.8612 160.021 15.8612L159.689 16.0241L157.78 11.2586L158.071 11.1364C158.237 11.0549 161.93 9.30347 166.162 9.30347C172.013 9.30347 175.623 12.2768 175.623 17.0424V30.2393H170.229V28.3249C169.233 29.1803 167.2 30.6466 163.963 30.6466ZM165.54 21.1562C164.295 21.1562 162.179 21.6857 162.179 23.6001C162.179 25.5145 164.254 25.7996 165.457 25.7996C167.988 25.7996 169.482 24.0889 169.773 23.6816V21.9709C169.275 21.8079 167.698 21.1562 165.54 21.1562Z" fill="#0037D7"/>
<path d="M183.765 40.1394C180.653 40.1394 178.246 38.0214 178.121 37.9399L177.914 37.7363L180.694 33.2966L181.026 33.6224C181.026 33.6224 182.271 34.8444 183.474 34.8444C185.051 34.8444 185.632 34.4778 186.545 32.1968L187.292 30.3232L177.333 9.79468H183.765L190.238 23.6025L195.342 9.79468H201.608L191.649 34.3149C190.072 38.1843 187.416 40.1394 183.765 40.1394Z" fill="#0037D7"/>
</g>
<defs>
<clipPath id="clip0_24_627">
<rect width="202" height="41" fill="white"/>
</clipPath>
</defs>
</svg>
